<?xml version="1.0" encoding="UTF-8"?>
<svg version="1.1" xmlns="http://www.w3.org/2000/svg" width="16" height="16">
<path d="M0 0 C2.16874252 0.50603992 3.99967627 0.99983813 6 2 C7.02853008 4.92735485 7.23803883 6.41283754 6.0625 9.3125 C3.32080639 11.55570386 1.35947164 11.63273101 -2.1171875 11.453125 C-4 11 -4 11 -6.125 8.8125 C-7 6 -7 6 -6.1875 3.1875 C-5.795625 2.465625 -5.40375 1.74375 -5 1 C-3.35 1.33 -1.7 1.66 0 2 C0 1.34 0 0.68 0 0 Z " fill="#F7A928" transform="translate(9,5)"/>
<path d="" fill="#FF0000" transform="translate(0,0)"/>
<path d="" fill="#FF0000" transform="translate(0,0)"/>
<path d="" fill="#FF0000" transform="translate(0,0)"/>
<path d="" fill="#FF0000" transform="translate(0,0)"/>
<path d="" fill="#FF0000" transform="translate(0,0)"/>
</svg>
